<svg version="1.0" xmlns="http://www.w3.org/2000/svg"
 width="150" height="30" viewBox="0 0 1681.000000 309.000000"
 preserveAspectRatio="xMidYMid meet">

<g transform="translate(0.000000,309.000000) scale(0.100000,-0.100000)"
fill="#FFFFFF" stroke="none">
<path d="M375 2710 l-380 -380 388 0 387 0 0 380 c0 209 -3 380 -8 380 -4 0
-178 -171 -387 -380z"/>
<path d="M1180 2710 l0 -380 385 0 385 0 0 380 0 380 -385 0 -385 0 0 -380z"/>
<path d="M2350 2710 l0 -380 385 0 385 0 0 380 0 380 -385 0 -385 0 0 -380z"/>
<path d="M4427 3033 c-10 -9 -9 -3023 1 -3023 4 0 83 75 175 168 l167 167 0
363 0 362 405 0 c495 0 619 11 820 76 370 119 602 360 681 709 24 104 23 317
0 428 -37 169 -106 306 -214 420 -190 199 -437 301 -789 327 -153 11 -1236 14
-1246 3z m1368 -336 c224 -53 385 -156 472 -305 14 -23 37 -75 51 -115 22 -63
25 -88 26 -212 1 -113 -3 -151 -18 -195 -38 -112 -77 -173 -160 -256 -67 -66
-101 -90 -177 -128 -185 -91 -303 -106 -846 -106 l-373 0 0 671 0 671 478 -5
c395 -3 489 -7 547 -20z"/>
<path d="M8406 3028 c4 -7 257 -343 562 -746 l553 -733 -39 -52 c-21 -29 -283
-376 -581 -772 l-543 -720 188 -3 c104 -1 193 -1 199 2 5 2 226 294 490 650
264 355 483 644 487 643 4 -1 223 -293 488 -649 l482 -648 204 0 205 0 -576
765 c-317 421 -578 771 -581 779 -4 10 200 287 548 746 304 402 555 735 556
741 3 6 -68 8 -194 7 l-198 -3 -455 -612 c-251 -336 -459 -615 -463 -618 -3
-4 -216 273 -473 614 l-467 621 -200 0 c-157 0 -198 -3 -192 -12z"/>
<path d="M11393 3026 c3 -8 285 -421 626 -917 l621 -902 0 -598 c0 -330 3
-599 8 -599 4 0 83 75 175 168 l167 167 0 430 0 430 630 913 c347 502 630 915
630 918 0 2 -88 4 -195 4 l-195 0 -29 -41 c-16 -22 -249 -363 -518 -759 -268
-395 -490 -716 -493 -715 -3 2 -234 343 -515 759 l-509 756 -204 0 c-173 0
-203 -2 -199 -14z"/>
<path d="M7517 2856 l-167 -174 0 -1341 0 -1341 175 0 175 0 0 1515 c0 833 -4
1515 -8 1515 -5 0 -83 -78 -175 -174z"/>
<path d="M14928 2863 l-168 -168 0 -1348 0 -1347 1025 0 1025 0 0 160 0 160
-855 0 -855 0 -2 1355 -3 1355 -167 -167z"/>
<path d="M0 1545 l0 -385 390 0 390 0 0 385 0 385 -390 0 -390 0 0 -385z"/>
<path d="M1180 1550 l0 -380 385 0 385 0 0 380 0 380 -385 0 -385 0 0 -380z"/>
<path d="M2350 1550 l0 -380 385 0 385 0 0 380 0 380 -385 0 -385 0 0 -380z"/>
<path d="M0 395 l0 -385 385 0 385 0 0 385 0 385 -385 0 -385 0 0 -385z"/>
<path d="M1180 395 l0 -385 385 0 385 0 0 385 0 385 -385 0 -385 0 0 -385z"/>
<path d="M2350 394 c0 -212 3 -384 8 -382 4 1 178 175 386 386 l380 382 -387
0 -387 0 0 -386z"/>
</g>
</svg>
